<svg width="135" height="44" viewBox="0 0 135 44" fill="none" xmlns="http://www.w3.org/2000/svg">
<path d="M18.816 2.32H28.104V21.64C28.104 24.248 27.6 26.52 26.592 28.456C25.584 30.392 24.096 31.896 22.128 32.968C20.176 34.04 17.768 34.576 14.904 34.576C12.04 34.576 9.616 34.04 7.632 32.968C5.664 31.896 4.176 30.392 3.168 28.456C2.16 26.52 1.656 24.248 1.656 21.64V2.32H10.944V21.136C10.944 22.304 11.088 23.264 11.376 24.016C11.664 24.752 12.096 25.296 12.672 25.648C13.264 26 14.008 26.176 14.904 26.176C15.784 26.176 16.512 26 17.088 25.648C17.664 25.296 18.096 24.752 18.384 24.016C18.672 23.264 18.816 22.304 18.816 21.136V2.32ZM103.331 2.32V34H94.0429V18.256L94.4269 11.728L92.9629 19.336L89.2429 30.928H80.1469L76.4509 19.336L74.9869 11.728L75.3709 18.256V34H66.0829V2.32H79.3789L84.1789 20.872L84.7069 24.016L85.2349 20.872L90.0349 2.32H103.331ZM108.245 2.32H121.517C123.581 2.32 125.445 2.704 127.109 3.472C128.773 4.224 130.093 5.344 131.069 6.832C132.061 8.32 132.557 10.144 132.557 12.304C132.557 14.464 132.061 16.328 131.069 17.896C130.093 19.448 128.773 20.648 127.109 21.496C125.445 22.328 123.581 22.744 121.517 22.744H117.533V34H108.245V2.32ZM117.533 15.52H118.925C119.629 15.52 120.253 15.424 120.797 15.232C121.357 15.024 121.797 14.704 122.117 14.272C122.437 13.824 122.597 13.248 122.597 12.544C122.597 11.84 122.437 11.272 122.117 10.84C121.797 10.392 121.357 10.064 120.797 9.856C120.253 9.648 119.629 9.544 118.925 9.544H117.533V15.52Z" fill="white"/>
<path d="M42.0068 2.32H51.1028L64.1588 34H54.2468L52.2308 28.504H40.9268L38.8868 34H28.9507L42.0068 2.32ZM44.0468 20.44H49.1108L46.6148 13.456H46.5428L44.0468 20.44Z" fill="#A06EC2"/>
<path d="M11.044 36.72H11.296V40.028C11.296 40.4627 11.208 40.8347 11.032 41.144C10.856 41.4533 10.6227 41.6893 10.332 41.852C10.0413 42.0147 9.72267 42.096 9.376 42.096C9.02933 42.096 8.70933 42.0147 8.416 41.852C8.12267 41.6893 7.888 41.4533 7.712 41.144C7.536 40.8347 7.448 40.4627 7.448 40.028V36.72H7.696V40.016C7.696 40.3813 7.772 40.7013 7.924 40.976C8.076 41.248 8.27867 41.46 8.532 41.612C8.788 41.764 9.06933 41.84 9.376 41.84C9.68267 41.84 9.96133 41.764 10.212 41.612C10.4653 41.46 10.6667 41.248 10.816 40.976C10.968 40.7013 11.044 40.3813 11.044 40.016V36.72ZM13.847 38.62C14.047 38.62 14.243 38.664 14.435 38.752C14.627 38.84 14.7843 38.98 14.907 39.172C15.0323 39.3613 15.095 39.608 15.095 39.912V42H14.831V39.996C14.831 39.5933 14.7377 39.3067 14.551 39.136C14.3643 38.9627 14.127 38.876 13.839 38.876C13.647 38.876 13.4617 38.932 13.283 39.044C13.1043 39.156 12.9563 39.308 12.839 39.5C12.7243 39.692 12.667 39.9067 12.667 40.144V42H12.411V38.716H12.667V39.388C12.683 39.292 12.7457 39.184 12.855 39.064C12.9643 38.944 13.1057 38.84 13.279 38.752C13.4523 38.664 13.6417 38.62 13.847 38.62ZM16.2835 42V38.716H16.5395V42H16.2835ZM16.4155 37.212C16.3435 37.212 16.2822 37.1867 16.2315 37.136C16.1808 37.0853 16.1555 37.024 16.1555 36.952C16.1555 36.8773 16.1808 36.8147 16.2315 36.764C16.2848 36.7133 16.3462 36.688 16.4155 36.688C16.4635 36.688 16.5075 36.7 16.5475 36.724C16.5902 36.748 16.6235 36.78 16.6475 36.82C16.6742 36.8573 16.6875 36.9013 16.6875 36.952C16.6875 37.024 16.6608 37.0853 16.6075 37.136C16.5542 37.1867 16.4902 37.212 16.4155 37.212ZM17.4407 38.716H18.2207V37.732C18.2207 37.3853 18.27 37.116 18.3687 36.924C18.4674 36.732 18.5914 36.5973 18.7407 36.52C18.89 36.44 19.0407 36.4 19.1927 36.4C19.374 36.4 19.5154 36.4267 19.6167 36.48C19.718 36.5307 19.7754 36.5613 19.7887 36.572L19.6647 36.796C19.6487 36.7827 19.5994 36.7547 19.5167 36.712C19.4367 36.6667 19.3207 36.644 19.1687 36.644C19.0567 36.644 18.9474 36.672 18.8407 36.728C18.734 36.7813 18.6447 36.8893 18.5727 37.052C18.5034 37.2147 18.4687 37.4587 18.4687 37.784V38.716H19.5047V38.968H18.4687V42H18.2207V38.968H17.4407V38.716ZM20.3407 42V38.716H20.5967V42H20.3407ZM20.4727 37.212C20.4007 37.212 20.3394 37.1867 20.2887 37.136C20.238 37.0853 20.2127 37.024 20.2127 36.952C20.2127 36.8773 20.238 36.8147 20.2887 36.764C20.342 36.7133 20.4034 36.688 20.4727 36.688C20.5207 36.688 20.5647 36.7 20.6047 36.724C20.6474 36.748 20.6807 36.78 20.7047 36.82C20.7314 36.8573 20.7447 36.9013 20.7447 36.952C20.7447 37.024 20.718 37.0853 20.6647 37.136C20.6114 37.1867 20.5474 37.212 20.4727 37.212ZM21.8712 40.336C21.8712 40.5947 21.9192 40.84 22.0152 41.072C22.1112 41.3013 22.2579 41.488 22.4552 41.632C22.6525 41.776 22.9019 41.848 23.2032 41.848C23.4459 41.848 23.6445 41.8067 23.7992 41.724C23.9565 41.6413 24.0792 41.5453 24.1672 41.436C24.2579 41.324 24.3205 41.2267 24.3552 41.144L24.5912 41.304C24.4845 41.4773 24.3659 41.624 24.2352 41.744C24.1045 41.8613 23.9539 41.9493 23.7832 42.008C23.6152 42.0667 23.4179 42.096 23.1912 42.096C22.8472 42.096 22.5565 42.016 22.3192 41.856C22.0819 41.6933 21.9019 41.4773 21.7792 41.208C21.6592 40.936 21.5992 40.6387 21.5992 40.316C21.5992 39.996 21.6605 39.708 21.7832 39.452C21.9085 39.196 22.0885 38.9933 22.3232 38.844C22.5605 38.6947 22.8459 38.62 23.1792 38.62C23.4752 38.62 23.7325 38.6893 23.9512 38.828C24.1725 38.964 24.3445 39.1507 24.4672 39.388C24.5899 39.6253 24.6512 39.896 24.6512 40.2C24.6512 40.224 24.6499 40.248 24.6472 40.272C24.6445 40.2933 24.6432 40.3147 24.6432 40.336H21.8712ZM24.3672 40.08C24.3619 39.9067 24.3219 39.7267 24.2472 39.54C24.1752 39.3533 24.0539 39.196 23.8832 39.068C23.7125 38.9373 23.4779 38.872 23.1792 38.872C22.8645 38.872 22.6152 38.9347 22.4312 39.06C22.2499 39.1853 22.1179 39.3413 22.0352 39.528C21.9552 39.7147 21.9072 39.8987 21.8912 40.08H24.3672ZM27.0229 42.096C26.7322 42.096 26.4655 42.0293 26.2229 41.896C25.9829 41.7627 25.7909 41.5667 25.6469 41.308C25.5029 41.0493 25.4309 40.7333 25.4309 40.36C25.4309 39.9867 25.5029 39.6707 25.6469 39.412C25.7909 39.1533 25.9829 38.9573 26.2229 38.824C26.4655 38.688 26.7322 38.62 27.0229 38.62C27.2895 38.62 27.5242 38.6707 27.7269 38.772C27.9295 38.8707 28.0895 38.9853 28.2069 39.116C28.3242 39.2467 28.3869 39.3573 28.3949 39.448V36.496H28.6629V42H28.4069V41.272C28.3989 41.352 28.3362 41.4573 28.2189 41.588C28.1015 41.7187 27.9402 41.836 27.7349 41.94C27.5295 42.044 27.2922 42.096 27.0229 42.096ZM26.9989 41.84C27.2522 41.84 27.4842 41.78 27.6949 41.66C27.9082 41.54 28.0775 41.3693 28.2029 41.148C28.3309 40.9267 28.3949 40.664 28.3949 40.36C28.3949 40.056 28.3309 39.7933 28.2029 39.572C28.0775 39.3507 27.9082 39.18 27.6949 39.06C27.4842 38.9373 27.2522 38.876 26.9989 38.876C26.7722 38.876 26.5589 38.936 26.3589 39.056C26.1615 39.1733 26.0015 39.3427 25.8789 39.564C25.7562 39.7853 25.6949 40.0507 25.6949 40.36C25.6949 40.6693 25.7562 40.9347 25.8789 41.156C26.0015 41.3773 26.1615 41.5467 26.3589 41.664C26.5589 41.7813 26.7722 41.84 26.9989 41.84ZM32.9266 36.72H33.2346L35.0746 42H34.8066L34.2906 40.552H31.8706L31.3466 42H31.0746L32.9266 36.72ZM31.9386 40.296H34.2266L33.0866 37.052H33.0746L31.9386 40.296ZM35.4464 38.716H36.1624V37.368H36.4184V38.716H37.3544V38.972H36.4184V41.192C36.4184 41.4347 36.4637 41.604 36.5544 41.7C36.645 41.7933 36.7517 41.84 36.8744 41.84C36.9997 41.84 37.093 41.8187 37.1544 41.776C37.2157 41.7333 37.2517 41.7053 37.2624 41.692L37.4184 41.904C37.405 41.9173 37.3757 41.94 37.3304 41.972C37.285 42.004 37.2237 42.032 37.1464 42.056C37.0717 42.0827 36.9784 42.096 36.8664 42.096C36.6717 42.096 36.505 42.0307 36.3664 41.9C36.2304 41.7667 36.1624 41.552 36.1624 41.256V38.972H35.4464V38.716ZM39.6561 38.62C39.8561 38.62 40.0521 38.664 40.2441 38.752C40.4361 38.84 40.5934 38.98 40.7161 39.172C40.8414 39.3613 40.9041 39.608 40.9041 39.912V42H40.6401V39.996C40.6401 39.5933 40.5467 39.3067 40.3601 39.136C40.1734 38.9627 39.9361 38.876 39.6481 38.876C39.4561 38.876 39.2707 38.932 39.0921 39.044C38.9134 39.156 38.7654 39.308 38.6481 39.5C38.5334 39.692 38.4761 39.9067 38.4761 40.144V42H38.2081V36.496H38.4761V39.388C38.4921 39.292 38.5534 39.184 38.6601 39.064C38.7694 38.944 38.9107 38.84 39.0841 38.752C39.2574 38.664 39.4481 38.62 39.6561 38.62ZM42.3469 42H42.0829V36.496H42.3469V42ZM43.5431 40.336C43.5431 40.5947 43.5911 40.84 43.6871 41.072C43.7831 41.3013 43.9297 41.488 44.1271 41.632C44.3244 41.776 44.5737 41.848 44.8751 41.848C45.1177 41.848 45.3164 41.8067 45.4711 41.724C45.6284 41.6413 45.7511 41.5453 45.8391 41.436C45.9297 41.324 45.9924 41.2267 46.0271 41.144L46.2631 41.304C46.1564 41.4773 46.0377 41.624 45.9071 41.744C45.7764 41.8613 45.6257 41.9493 45.4551 42.008C45.2871 42.0667 45.0897 42.096 44.8631 42.096C44.5191 42.096 44.2284 42.016 43.9911 41.856C43.7537 41.6933 43.5737 41.4773 43.4511 41.208C43.3311 40.936 43.2711 40.6387 43.2711 40.316C43.2711 39.996 43.3324 39.708 43.4551 39.452C43.5804 39.196 43.7604 38.9933 43.9951 38.844C44.2324 38.6947 44.5177 38.62 44.8511 38.62C45.1471 38.62 45.4044 38.6893 45.6231 38.828C45.8444 38.964 46.0164 39.1507 46.1391 39.388C46.2617 39.6253 46.3231 39.896 46.3231 40.2C46.3231 40.224 46.3217 40.248 46.3191 40.272C46.3164 40.2933 46.3151 40.3147 46.3151 40.336H43.5431ZM46.0391 40.08C46.0337 39.9067 45.9937 39.7267 45.9191 39.54C45.8471 39.3533 45.7257 39.196 45.5551 39.068C45.3844 38.9373 45.1497 38.872 44.8511 38.872C44.5364 38.872 44.2871 38.9347 44.1031 39.06C43.9217 39.1853 43.7897 39.3413 43.7071 39.528C43.6271 39.7147 43.5791 39.8987 43.5631 40.08H46.0391ZM46.9308 38.716H47.6468V37.368H47.9028V38.716H48.8388V38.972H47.9028V41.192C47.9028 41.4347 47.9481 41.604 48.0388 41.7C48.1294 41.7933 48.2361 41.84 48.3588 41.84C48.4841 41.84 48.5774 41.8187 48.6388 41.776C48.7001 41.7333 48.7361 41.7053 48.7468 41.692L48.9028 41.904C48.8894 41.9173 48.8601 41.94 48.8148 41.972C48.7694 42.004 48.7081 42.032 48.6308 42.056C48.5561 42.0827 48.4628 42.096 48.3508 42.096C48.1561 42.096 47.9894 42.0307 47.8508 41.9C47.7148 41.7667 47.6468 41.552 47.6468 41.256V38.972H46.9308V38.716ZM49.6524 40.336C49.6524 40.5947 49.7004 40.84 49.7964 41.072C49.8924 41.3013 50.0391 41.488 50.2364 41.632C50.4338 41.776 50.6831 41.848 50.9844 41.848C51.2271 41.848 51.4258 41.8067 51.5804 41.724C51.7378 41.6413 51.8604 41.5453 51.9484 41.436C52.0391 41.324 52.1018 41.2267 52.1364 41.144L52.3724 41.304C52.2658 41.4773 52.1471 41.624 52.0164 41.744C51.8858 41.8613 51.7351 41.9493 51.5644 42.008C51.3964 42.0667 51.1991 42.096 50.9724 42.096C50.6284 42.096 50.3378 42.016 50.1004 41.856C49.8631 41.6933 49.6831 41.4773 49.5604 41.208C49.4404 40.936 49.3804 40.6387 49.3804 40.316C49.3804 39.996 49.4418 39.708 49.5644 39.452C49.6898 39.196 49.8698 38.9933 50.1044 38.844C50.3418 38.6947 50.6271 38.62 50.9604 38.62C51.2564 38.62 51.5138 38.6893 51.7324 38.828C51.9538 38.964 52.1258 39.1507 52.2484 39.388C52.3711 39.6253 52.4324 39.896 52.4324 40.2C52.4324 40.224 52.4311 40.248 52.4284 40.272C52.4258 40.2933 52.4244 40.3147 52.4244 40.336H49.6524ZM52.1484 40.08C52.1431 39.9067 52.1031 39.7267 52.0284 39.54C51.9564 39.3533 51.8351 39.196 51.6644 39.068C51.4938 38.9373 51.2591 38.872 50.9604 38.872C50.6458 38.872 50.3964 38.9347 50.2124 39.06C50.0311 39.1853 49.8991 39.3413 49.8164 39.528C49.7364 39.7147 49.6884 39.8987 49.6724 40.08H52.1484ZM59.3188 36.72V42H59.0708V37.596L59.0908 37.264L58.9988 37.596L57.3988 41.808H57.1428L55.5428 37.596L55.4548 37.264L55.4748 37.596V42H55.2228V36.72H55.4788L57.2388 41.392L57.2708 41.532L57.3028 41.392L59.0708 36.72H59.3188ZM63.2549 42V41.272C63.2389 41.3467 63.1762 41.4507 63.0669 41.584C62.9602 41.7147 62.8109 41.8333 62.6189 41.94C62.4269 42.044 62.1989 42.096 61.9349 42.096C61.6442 42.096 61.3722 42.0293 61.1189 41.896C60.8682 41.7627 60.6655 41.5667 60.5109 41.308C60.3562 41.0493 60.2789 40.7333 60.2789 40.36C60.2789 39.9867 60.3562 39.6707 60.5109 39.412C60.6655 39.1533 60.8682 38.9573 61.1189 38.824C61.3722 38.688 61.6442 38.62 61.9349 38.62C62.1989 38.62 62.4269 38.672 62.6189 38.776C62.8135 38.8773 62.9655 38.9933 63.0749 39.124C63.1869 39.2547 63.2469 39.3627 63.2549 39.448V38.716H63.5029V42H63.2549ZM60.5349 40.36C60.5349 40.6693 60.6015 40.9347 60.7349 41.156C60.8682 41.3773 61.0402 41.5467 61.2509 41.664C61.4615 41.7813 61.6815 41.84 61.9109 41.84C62.1642 41.84 62.3909 41.78 62.5909 41.66C62.7909 41.54 62.9482 41.3693 63.0629 41.148C63.1802 40.9267 63.2389 40.664 63.2389 40.36C63.2389 40.056 63.1802 39.7933 63.0629 39.572C62.9482 39.3507 62.7909 39.18 62.5909 39.06C62.3909 38.9373 62.1642 38.876 61.9109 38.876C61.6815 38.876 61.4615 38.936 61.2509 39.056C61.0402 39.1733 60.8682 39.3427 60.7349 39.564C60.6015 39.7853 60.5349 40.0507 60.5349 40.36ZM66.0501 38.62C66.2501 38.62 66.4461 38.664 66.6381 38.752C66.8301 38.84 66.9875 38.98 67.1101 39.172C67.2355 39.3613 67.2981 39.608 67.2981 39.912V42H67.0341V39.996C67.0341 39.5933 66.9408 39.3067 66.7541 39.136C66.5675 38.9627 66.3301 38.876 66.0421 38.876C65.8501 38.876 65.6648 38.932 65.4861 39.044C65.3075 39.156 65.1595 39.308 65.0421 39.5C64.9275 39.692 64.8701 39.9067 64.8701 40.144V42H64.6141V38.716H64.8701V39.388C64.8861 39.292 64.9488 39.184 65.0581 39.064C65.1675 38.944 65.3088 38.84 65.4821 38.752C65.6555 38.664 65.8448 38.62 66.0501 38.62ZM71.0986 42V41.272C71.0826 41.3467 71.02 41.4507 70.9106 41.584C70.804 41.7147 70.6546 41.8333 70.4626 41.94C70.2706 42.044 70.0426 42.096 69.7786 42.096C69.488 42.096 69.216 42.0293 68.9626 41.896C68.712 41.7627 68.5093 41.5667 68.3546 41.308C68.2 41.0493 68.1226 40.7333 68.1226 40.36C68.1226 39.9867 68.2 39.6707 68.3546 39.412C68.5093 39.1533 68.712 38.9573 68.9626 38.824C69.216 38.688 69.488 38.62 69.7786 38.62C70.0426 38.62 70.2706 38.672 70.4626 38.776C70.6573 38.8773 70.8093 38.9933 70.9186 39.124C71.0306 39.2547 71.0906 39.3627 71.0986 39.448V38.716H71.3466V42H71.0986ZM68.3786 40.36C68.3786 40.6693 68.4453 40.9347 68.5786 41.156C68.712 41.3773 68.884 41.5467 69.0946 41.664C69.3053 41.7813 69.5253 41.84 69.7546 41.84C70.008 41.84 70.2346 41.78 70.4346 41.66C70.6346 41.54 70.792 41.3693 70.9066 41.148C71.024 40.9267 71.0826 40.664 71.0826 40.36C71.0826 40.056 71.024 39.7933 70.9066 39.572C70.792 39.3507 70.6346 39.18 70.4346 39.06C70.2346 38.9373 70.008 38.876 69.7546 38.876C69.5253 38.876 69.3053 38.936 69.0946 39.056C68.884 39.1733 68.712 39.3427 68.5786 39.564C68.4453 39.7853 68.3786 40.0507 68.3786 40.36ZM73.8499 43.752C73.5672 43.752 73.3272 43.72 73.1299 43.656C72.9352 43.592 72.7765 43.5107 72.6539 43.412C72.5312 43.316 72.4392 43.2187 72.3779 43.12L72.6179 42.94C72.6605 43.0067 72.7232 43.0827 72.8059 43.168C72.8912 43.256 73.0152 43.332 73.1779 43.396C73.3432 43.46 73.5672 43.492 73.8499 43.492C74.1325 43.492 74.3685 43.4253 74.5579 43.292C74.7472 43.1613 74.8899 42.988 74.9859 42.772C75.0819 42.556 75.1299 42.3227 75.1299 42.072V41.944H75.3779V42.096C75.3779 42.4533 75.3085 42.7547 75.1699 43C75.0339 43.248 74.8499 43.4347 74.6179 43.56C74.3885 43.688 74.1325 43.752 73.8499 43.752ZM75.1299 42V41.272C75.1139 41.3467 75.0512 41.4507 74.9419 41.584C74.8352 41.7147 74.6859 41.8333 74.4939 41.94C74.3019 42.044 74.0739 42.096 73.8099 42.096C73.5192 42.096 73.2472 42.0293 72.9939 41.896C72.7432 41.7627 72.5405 41.5667 72.3859 41.308C72.2312 41.0493 72.1539 40.7333 72.1539 40.36C72.1539 39.9867 72.2312 39.6707 72.3859 39.412C72.5405 39.1533 72.7432 38.9573 72.9939 38.824C73.2472 38.688 73.5192 38.62 73.8099 38.62C74.0739 38.62 74.3019 38.672 74.4939 38.776C74.6885 38.8773 74.8405 38.9933 74.9499 39.124C75.0619 39.2547 75.1219 39.3627 75.1299 39.448V38.716H75.3779V42H75.1299ZM72.4099 40.36C72.4099 40.6693 72.4765 40.9347 72.6099 41.156C72.7432 41.3773 72.9152 41.5467 73.1259 41.664C73.3365 41.7813 73.5565 41.84 73.7859 41.84C74.0392 41.84 74.2659 41.78 74.4659 41.66C74.6659 41.54 74.8232 41.3693 74.9379 41.148C75.0552 40.9267 75.1139 40.664 75.1139 40.36C75.1139 40.056 75.0552 39.7933 74.9379 39.572C74.8232 39.3507 74.6659 39.18 74.4659 39.06C74.2659 38.9373 74.0392 38.876 73.7859 38.876C73.5565 38.876 73.3365 38.936 73.1259 39.056C72.9152 39.1733 72.7432 39.3427 72.6099 39.564C72.4765 39.7853 72.4099 40.0507 72.4099 40.36ZM76.4962 40.336C76.4962 40.5947 76.5442 40.84 76.6402 41.072C76.7362 41.3013 76.8829 41.488 77.0802 41.632C77.2775 41.776 77.5269 41.848 77.8282 41.848C78.0709 41.848 78.2695 41.8067 78.4242 41.724C78.5815 41.6413 78.7042 41.5453 78.7922 41.436C78.8829 41.324 78.9455 41.2267 78.9802 41.144L79.2162 41.304C79.1095 41.4773 78.9909 41.624 78.8602 41.744C78.7295 41.8613 78.5789 41.9493 78.4082 42.008C78.2402 42.0667 78.0429 42.096 77.8162 42.096C77.4722 42.096 77.1815 42.016 76.9442 41.856C76.7069 41.6933 76.5269 41.4773 76.4042 41.208C76.2842 40.936 76.2242 40.6387 76.2242 40.316C76.2242 39.996 76.2855 39.708 76.4082 39.452C76.5335 39.196 76.7135 38.9933 76.9482 38.844C77.1855 38.6947 77.4709 38.62 77.8042 38.62C78.1002 38.62 78.3575 38.6893 78.5762 38.828C78.7975 38.964 78.9695 39.1507 79.0922 39.388C79.2149 39.6253 79.2762 39.896 79.2762 40.2C79.2762 40.224 79.2749 40.248 79.2722 40.272C79.2695 40.2933 79.2682 40.3147 79.2682 40.336H76.4962ZM78.9922 40.08C78.9869 39.9067 78.9469 39.7267 78.8722 39.54C78.8002 39.3533 78.6789 39.196 78.5082 39.068C78.3375 38.9373 78.1029 38.872 77.8042 38.872C77.4895 38.872 77.2402 38.9347 77.0562 39.06C76.8749 39.1853 76.7429 39.3413 76.6602 39.528C76.5802 39.7147 76.5322 39.8987 76.5162 40.08H78.9922ZM83.6159 38.62C83.8559 38.62 84.0545 38.6747 84.2119 38.784C84.3719 38.8907 84.4905 39.0533 84.5679 39.272C84.6479 39.4907 84.6879 39.768 84.6879 40.104V42H84.4319V40.208C84.4319 39.744 84.3692 39.408 84.2439 39.2C84.1212 38.9893 83.9052 38.884 83.5959 38.884C83.4439 38.884 83.2892 38.928 83.1319 39.016C82.9772 39.1013 82.8465 39.2413 82.7399 39.436C82.6359 39.628 82.5839 39.8853 82.5839 40.208V42H82.3279V40.208C82.3279 39.744 82.2465 39.408 82.0839 39.2C81.9239 38.9893 81.7199 38.884 81.4719 38.884C81.3172 38.884 81.1639 38.9253 81.0119 39.008C80.8599 39.0907 80.7332 39.2293 80.6319 39.424C80.5332 39.616 80.4839 39.8773 80.4839 40.208V42H80.2279V38.716H80.4839V39.248C80.5105 39.1653 80.5679 39.076 80.6559 38.98C80.7465 38.8813 80.8652 38.7973 81.0119 38.728C81.1612 38.656 81.3332 38.62 81.5279 38.62C81.7305 38.62 81.8985 38.6707 82.0319 38.772C82.1679 38.8707 82.2719 38.9867 82.3439 39.12C82.4159 39.2533 82.4572 39.3707 82.4679 39.472C82.5079 39.3387 82.5785 39.2067 82.6799 39.076C82.7839 38.9453 82.9145 38.8373 83.0719 38.752C83.2319 38.664 83.4132 38.62 83.6159 38.62ZM85.8712 40.336C85.8712 40.5947 85.9192 40.84 86.0152 41.072C86.1112 41.3013 86.2579 41.488 86.4552 41.632C86.6525 41.776 86.9019 41.848 87.2032 41.848C87.4459 41.848 87.6445 41.8067 87.7992 41.724C87.9565 41.6413 88.0792 41.5453 88.1672 41.436C88.2579 41.324 88.3205 41.2267 88.3552 41.144L88.5912 41.304C88.4845 41.4773 88.3659 41.624 88.2352 41.744C88.1045 41.8613 87.9539 41.9493 87.7832 42.008C87.6152 42.0667 87.4179 42.096 87.1912 42.096C86.8472 42.096 86.5565 42.016 86.3192 41.856C86.0819 41.6933 85.9019 41.4773 85.7792 41.208C85.6592 40.936 85.5992 40.6387 85.5992 40.316C85.5992 39.996 85.6605 39.708 85.7832 39.452C85.9085 39.196 86.0885 38.9933 86.3232 38.844C86.5605 38.6947 86.8459 38.62 87.1792 38.62C87.4752 38.62 87.7325 38.6893 87.9512 38.828C88.1725 38.964 88.3445 39.1507 88.4672 39.388C88.5899 39.6253 88.6512 39.896 88.6512 40.2C88.6512 40.224 88.6499 40.248 88.6472 40.272C88.6445 40.2933 88.6432 40.3147 88.6432 40.336H85.8712ZM88.3672 40.08C88.3619 39.9067 88.3219 39.7267 88.2472 39.54C88.1752 39.3533 88.0539 39.196 87.8832 39.068C87.7125 38.9373 87.4779 38.872 87.1792 38.872C86.8645 38.872 86.6152 38.9347 86.4312 39.06C86.2499 39.1853 86.1179 39.3413 86.0352 39.528C85.9552 39.7147 85.9072 39.8987 85.8912 40.08H88.3672ZM91.0189 38.62C91.2189 38.62 91.4149 38.664 91.6069 38.752C91.7989 38.84 91.9562 38.98 92.0789 39.172C92.2042 39.3613 92.2669 39.608 92.2669 39.912V42H92.0029V39.996C92.0029 39.5933 91.9095 39.3067 91.7229 39.136C91.5362 38.9627 91.2989 38.876 91.0109 38.876C90.8189 38.876 90.6335 38.932 90.4549 39.044C90.2762 39.156 90.1282 39.308 90.0109 39.5C89.8962 39.692 89.8389 39.9067 89.8389 40.144V42H89.5829V38.716H89.8389V39.388C89.8549 39.292 89.9175 39.184 90.0269 39.064C90.1362 38.944 90.2775 38.84 90.4509 38.752C90.6242 38.664 90.8135 38.62 91.0189 38.62ZM93.0714 38.716H93.7874V37.368H94.0434V38.716H94.9794V38.972H94.0434V41.192C94.0434 41.4347 94.0887 41.604 94.1794 41.7C94.27 41.7933 94.3767 41.84 94.4994 41.84C94.6247 41.84 94.718 41.8187 94.7794 41.776C94.8407 41.7333 94.8767 41.7053 94.8874 41.692L95.0434 41.904C95.03 41.9173 95.0007 41.94 94.9554 41.972C94.91 42.004 94.8487 42.032 94.7714 42.056C94.6967 42.0827 94.6034 42.096 94.4914 42.096C94.2967 42.096 94.13 42.0307 93.9914 41.9C93.8554 41.7667 93.7874 41.552 93.7874 41.256V38.972H93.0714V38.716ZM97.7797 36.72H98.9157C99.2384 36.72 99.529 36.7693 99.7877 36.868C100.049 36.9667 100.257 37.1267 100.412 37.348C100.566 37.5667 100.644 37.8613 100.644 38.232C100.644 38.6 100.566 38.9 100.412 39.132C100.257 39.3613 100.049 39.5307 99.7877 39.64C99.529 39.7467 99.2384 39.8 98.9157 39.8H98.0317V42H97.7797V36.72ZM98.0317 39.544H98.8517C99.1317 39.544 99.3877 39.5027 99.6197 39.42C99.8517 39.3373 100.037 39.2 100.176 39.008C100.317 38.816 100.388 38.5573 100.388 38.232C100.388 37.904 100.317 37.6493 100.176 37.468C100.037 37.2867 99.8517 37.16 99.6197 37.088C99.3877 37.0133 99.1317 36.976 98.8517 36.976H98.0317V39.544ZM101.894 42H101.63V36.496H101.894V42ZM105.794 42V41.272C105.778 41.3467 105.715 41.4507 105.606 41.584C105.499 41.7147 105.35 41.8333 105.158 41.94C104.966 42.044 104.738 42.096 104.474 42.096C104.183 42.096 103.911 42.0293 103.658 41.896C103.407 41.7627 103.205 41.5667 103.05 41.308C102.895 41.0493 102.818 40.7333 102.818 40.36C102.818 39.9867 102.895 39.6707 103.05 39.412C103.205 39.1533 103.407 38.9573 103.658 38.824C103.911 38.688 104.183 38.62 104.474 38.62C104.738 38.62 104.966 38.672 105.158 38.776C105.353 38.8773 105.505 38.9933 105.614 39.124C105.726 39.2547 105.786 39.3627 105.794 39.448V38.716H106.042V42H105.794ZM103.074 40.36C103.074 40.6693 103.141 40.9347 103.274 41.156C103.407 41.3773 103.579 41.5467 103.79 41.664C104.001 41.7813 104.221 41.84 104.45 41.84C104.703 41.84 104.93 41.78 105.13 41.66C105.33 41.54 105.487 41.3693 105.602 41.148C105.719 40.9267 105.778 40.664 105.778 40.36C105.778 40.056 105.719 39.7933 105.602 39.572C105.487 39.3507 105.33 39.18 105.13 39.06C104.93 38.9373 104.703 38.876 104.45 38.876C104.221 38.876 104.001 38.936 103.79 39.056C103.579 39.1733 103.407 39.3427 103.274 39.564C103.141 39.7853 103.074 40.0507 103.074 40.36ZM106.829 38.716H107.545V37.368H107.801V38.716H108.737V38.972H107.801V41.192C107.801 41.4347 107.847 41.604 107.937 41.7C108.028 41.7933 108.135 41.84 108.257 41.84C108.383 41.84 108.476 41.8187 108.537 41.776C108.599 41.7333 108.635 41.7053 108.645 41.692L108.801 41.904C108.788 41.9173 108.759 41.94 108.713 41.972C108.668 42.004 108.607 42.032 108.529 42.056C108.455 42.0827 108.361 42.096 108.249 42.096C108.055 42.096 107.888 42.0307 107.749 41.9C107.613 41.7667 107.545 41.552 107.545 41.256V38.972H106.829V38.716ZM109.183 38.716H109.963V37.732C109.963 37.3853 110.012 37.116 110.111 36.924C110.21 36.732 110.334 36.5973 110.483 36.52C110.632 36.44 110.783 36.4 110.935 36.4C111.116 36.4 111.258 36.4267 111.359 36.48C111.46 36.5307 111.518 36.5613 111.531 36.572L111.407 36.796C111.391 36.7827 111.342 36.7547 111.259 36.712C111.179 36.6667 111.063 36.644 110.911 36.644C110.799 36.644 110.69 36.672 110.583 36.728C110.476 36.7813 110.387 36.8893 110.315 37.052C110.246 37.2147 110.211 37.4587 110.211 37.784V38.716H111.247V38.968H110.211V42H109.963V38.968H109.183V38.716ZM113.364 42.096C113.044 42.096 112.76 42.0187 112.512 41.864C112.264 41.7093 112.07 41.5013 111.928 41.24C111.787 40.9787 111.716 40.688 111.716 40.368C111.716 40.048 111.787 39.756 111.928 39.492C112.07 39.2253 112.264 39.0133 112.512 38.856C112.76 38.6987 113.044 38.62 113.364 38.62C113.684 38.62 113.967 38.6987 114.212 38.856C114.46 39.0133 114.654 39.2253 114.792 39.492C114.934 39.756 115.004 40.048 115.004 40.368C115.004 40.688 114.934 40.9787 114.792 41.24C114.654 41.5013 114.46 41.7093 114.212 41.864C113.967 42.0187 113.684 42.096 113.364 42.096ZM113.364 41.84C113.642 41.84 113.884 41.776 114.092 41.648C114.3 41.5173 114.462 41.3413 114.576 41.12C114.691 40.896 114.748 40.6453 114.748 40.368C114.748 40.0907 114.691 39.84 114.576 39.616C114.462 39.3893 114.3 39.2093 114.092 39.076C113.884 38.9427 113.642 38.876 113.364 38.876C113.087 38.876 112.843 38.9427 112.632 39.076C112.424 39.2093 112.262 39.3893 112.144 39.616C112.03 39.84 111.972 40.0907 111.972 40.368C111.972 40.6453 112.03 40.896 112.144 41.12C112.262 41.3413 112.424 41.5173 112.632 41.648C112.843 41.776 113.087 41.84 113.364 41.84ZM116.21 42H115.962V38.716H116.21V39.332H116.19C116.198 39.26 116.245 39.168 116.33 39.056C116.418 38.944 116.537 38.844 116.686 38.756C116.838 38.6653 117.013 38.62 117.21 38.62C117.365 38.62 117.496 38.6387 117.602 38.676C117.709 38.7133 117.781 38.7507 117.818 38.788L117.694 39.016C117.657 38.9867 117.592 38.956 117.498 38.924C117.405 38.892 117.292 38.876 117.158 38.876C116.972 38.876 116.806 38.9427 116.662 39.076C116.521 39.2093 116.41 39.368 116.33 39.552C116.25 39.736 116.21 39.904 116.21 40.056V42ZM121.827 38.62C122.067 38.62 122.265 38.6747 122.423 38.784C122.583 38.8907 122.701 39.0533 122.779 39.272C122.859 39.4907 122.899 39.768 122.899 40.104V42H122.643V40.208C122.643 39.744 122.58 39.408 122.455 39.2C122.332 38.9893 122.116 38.884 121.807 38.884C121.655 38.884 121.5 38.928 121.343 39.016C121.188 39.1013 121.057 39.2413 120.951 39.436C120.847 39.628 120.795 39.8853 120.795 40.208V42H120.539V40.208C120.539 39.744 120.457 39.408 120.295 39.2C120.135 38.9893 119.931 38.884 119.683 38.884C119.528 38.884 119.375 38.9253 119.223 39.008C119.071 39.0907 118.944 39.2293 118.843 39.424C118.744 39.616 118.695 39.8773 118.695 40.208V42H118.439V38.716H118.695V39.248C118.721 39.1653 118.779 39.076 118.867 38.98C118.957 38.8813 119.076 38.7973 119.223 38.728C119.372 38.656 119.544 38.62 119.739 38.62C119.941 38.62 120.109 38.6707 120.243 38.772C120.379 38.8707 120.483 38.9867 120.555 39.12C120.627 39.2533 120.668 39.3707 120.679 39.472C120.719 39.3387 120.789 39.2067 120.891 39.076C120.995 38.9453 121.125 38.8373 121.283 38.752C121.443 38.664 121.624 38.62 121.827 38.62Z" fill="white"/>
</svg>
