<svg width="88" height="23" viewBox="0 0 88 23" fill="none" xmlns="http://www.w3.org/2000/svg">
<path d="M11.544 0.879999H17.736V13.76C17.736 15.4987 17.4 17.0133 16.728 18.304C16.056 19.5947 15.064 20.5973 13.752 21.312C12.4507 22.0267 10.8453 22.384 8.936 22.384C7.02667 22.384 5.41067 22.0267 4.088 21.312C2.776 20.5973 1.784 19.5947 1.112 18.304C0.44 17.0133 0.104 15.4987 0.104 13.76V0.879999H6.296V13.424C6.296 14.2027 6.392 14.8427 6.584 15.344C6.776 15.8347 7.064 16.1973 7.448 16.432C7.84267 16.6667 8.33867 16.784 8.936 16.784C9.52267 16.784 10.008 16.6667 10.392 16.432C10.776 16.1973 11.064 15.8347 11.256 15.344C11.448 14.8427 11.544 14.2027 11.544 13.424V0.879999ZM67.8873 0.879999V22H61.6953V11.504L61.9513 7.152L60.9753 12.224L58.4953 19.952H52.4313L49.9673 12.224L48.9913 7.152L49.2473 11.504V22H43.0553V0.879999H51.9193L55.1193 13.248L55.4713 15.344L55.8233 13.248L59.0233 0.879999H67.8873ZM71.1635 0.879999H80.0115C81.3875 0.879999 82.6302 1.136 83.7395 1.648C84.8488 2.14933 85.7288 2.896 86.3795 3.888C87.0408 4.88 87.3715 6.096 87.3715 7.536C87.3715 8.976 87.0408 10.2187 86.3795 11.264C85.7288 12.2987 84.8488 13.0987 83.7395 13.664C82.6302 14.2187 81.3875 14.496 80.0115 14.496H77.3555V22H71.1635V0.879999ZM77.3555 9.68H78.2835C78.7528 9.68 79.1688 9.616 79.5315 9.488C79.9048 9.34933 80.1982 9.136 80.4115 8.848C80.6248 8.54933 80.7315 8.16533 80.7315 7.696C80.7315 7.22667 80.6248 6.848 80.4115 6.56C80.1982 6.26133 79.9048 6.04267 79.5315 5.904C79.1688 5.76533 78.7528 5.696 78.2835 5.696H77.3555V9.68Z" fill="#DBE2F0"/>
<path d="M27.0045 0.879999H33.0685L41.7725 22H35.1645L33.8205 18.336H26.2845L24.9245 22H18.3005L27.0045 0.879999ZM28.3645 12.96H31.7405L30.0765 8.304H30.0285L28.3645 12.96Z" fill="#A06EC2"/>
</svg>
